<?xml version="1.0" encoding="UTF-8"?>
<svg id="Layer_1" data-name="Layer 1" xmlns="http://www.w3.org/2000/svg" viewBox="0 0 121.05 219.03">
  <path d="M77.03,67h25.5c.87,0,3.56,3.6,2.01,4.95l-26.51,38.05h14l-.52,4.98L9.04,218.52c-4.66,1.56-8.72-.49-7.83-5.76l26.82-69.76H8.03l-.57-4,15.57-32H1.53c-.41,0-1.74-1.61-1.51-2.45C15.82,74.12,29.64,42.39,45.51,11.97c1.48-2.84,5.47-11.97,9.03-11.97h65l1.52,2.45-44.02,64.55ZM106.03,9h-48.5L13.03,98h24l-17,36h21l-19.5,54,55.5-70h-16l29-42h-30L106.03,9Z"/>
  <polygon points="106.03 9 60.03 76 90.03 76 61.03 118 77.03 118 21.53 188 41.03 134 20.03 134 37.03 98 13.03 98 57.53 9 106.03 9" style="fill: #fff200; stroke: #662d91; stroke-miterlimit: 10; stroke-width: 5px;"/>
</svg>